# xmcd CD database file
#
# Track frame offsets:
#	150
#	9270
#	20382
#	37943
#	60372
#	73029
#	87573
#	103656
#	124213
#	134191
#	139087
#	160686
#	173732
#
# Disc length: 2336 seconds
#
# Revision: 0
# Processed by: cddbd v1.5.2PL0 Copyright (c) Steve Scherf et al.
# Submitted via: CDex 2.02
#
DISCID=aa091e0d
DTITLE=Guy Davis - The Adventures of Fishy Waters: In Bed with the Blues CD2
DYEAR=2012
DGENRE=Blues
TTITLE0=The Story of Fishy Waters/Nobody Knows the Trouble On My Mind
TTITLE1=Teacup of Salt
TTITLE2=Juno Dies/Nobody Knows the Trouble On My Mind
TTITLE3=Fishy Leaves Home
TTITLE4=Walkin' Blues
TTITLE5=Fishy Meets Hobos
TTITLE6=Good Liquor's Gonna Carry Me Down
TTITLE7=Meeting Crazy Cat/Going to Nashville
TTITLE8=Two Drunk Hobos
TTITLE9=Tehula Buck by Campfire
TTITLE10=Watch Over Me
TTITLE11=Hobos Wake Up and Catch Train
TTITLE12=Closing Time
EXTD=YEAR: 2012
EXTT0=
EXTT1=
EXTT2=
EXTT3=
EXTT4=
EXTT5=
EXTT6=
EXTT7=
EXTT8=
EXTT9=
EXTT10=
EXTT11=
EXTT12=
PLAYORDER=
